<svg width="200" height="134" viewBox="0 0 200 134" fill="none" xmlns="http://www.w3.org/2000/svg">
<g clip-path="url(#clip0_13_4)">
<path d="M0 0.093689H199.61V133.427H0V0.093689Z" fill="white"/>
<path d="M0 0.093689H199.61V35.6493H0V0.093689ZM0 97.8715H199.61V133.427H0V97.8715Z" fill="#D03433"/>
<path d="M0 35.5713H199.61V97.9495H0V35.5713Z" fill="#FBCA46"/>
<path d="M69.1982 62.3159H78.0698V66.7604H69.1982V62.3159Z" fill="white"/>
<path d="M63.8752 75.6493C63.8752 78.3159 66.5367 80.0937 69.1981 80.0937C71.8596 80.0937 74.5211 78.3159 74.5211 75.6493L75.4082 62.3159H62.988L63.8752 75.6493ZM58.5522 62.3159C58.5522 59.6492 60.3266 57.8715 62.1009 57.8715H75.4082C78.0697 57.8715 79.844 59.6492 79.844 61.427V62.3159L78.9568 75.6493C78.0697 80.9826 74.5211 84.5382 69.1981 84.5382C63.8752 84.5382 60.3266 80.9826 59.4394 75.6493L58.5522 62.3159Z" fill="#A41517"/>
<path d="M60.3266 66.7604H78.0698V71.2048H73.634L69.1982 80.0937L64.7624 71.2048H60.3266V66.7604ZM47.0193 53.427H55.8908V84.5382H47.0193V53.427ZM82.5055 53.427H91.3771V84.5382H82.5055V53.427ZM60.3266 48.9826C60.3266 46.3159 62.1009 44.5381 64.7624 44.5381H73.634C76.2954 44.5381 78.0698 46.3159 78.0698 48.9826V50.7604C78.0698 52.5382 77.1826 53.427 75.4083 53.427H62.1009C61.2138 53.427 60.3266 52.5382 60.3266 51.6493V48.9826Z" fill="#A41517"/>
</g>
<defs>
<clipPath id="clip0_13_4">
<rect width="200" height="133.333" fill="white"/>
</clipPath>
</defs>
</svg>
