<svg width="38" height="38" viewBox="0 0 38 38" fill="none" xmlns="http://www.w3.org/2000/svg">
<path d="M12.8044 1.56952C6.1957 4.54343 2.56092 11.3173 3.71744 18.6695C4.87396 26.3521 13.4653 32.3 21.7261 31.0608C26.187 30.4 31.6392 26.0217 33.5392 21.5608C36.6783 14.3739 33.1261 5.69995 25.6087 1.81734C21.2305 -0.413092 17.2653 -0.495701 12.8044 1.56952ZM25.6087 2.89126C27.0957 3.71734 27.9218 4.70865 27.8392 5.78256C27.7566 7.43473 26.4348 8.17821 26.4348 6.52604C26.4348 6.113 26.0218 5.94778 25.5261 6.27821C24.8653 6.60865 24.9479 7.02169 25.6914 7.51734C26.4348 8.01299 26.5174 8.50865 26.0218 8.83908C25.5261 9.25212 24.6174 10.5739 23.9566 11.813C22.6348 14.4565 23.6261 17.1 25.8566 16.6869C27.5087 16.4391 28.7479 18.6695 29.0783 22.7173C29.3261 25.526 28.9957 26.1043 26.5174 27.8391C22.6348 30.4826 15.4479 30.4826 11.5653 27.9217C6.93918 24.7 5.45222 22.0565 5.12179 15.8608L4.79135 10.326L6.77396 12.4739C9.08701 15.1173 12.6392 16.5217 11.8957 14.5391C11.6479 13.7956 11.0696 13.4652 10.6566 13.713C10.2435 13.9608 9.91309 13.713 9.91309 13.3C9.91309 12.8043 10.574 12.3913 11.4 12.3913C12.2261 12.3913 13.7957 11.4826 14.8696 10.326C15.9435 9.16952 17.2653 8.26082 17.9261 8.26082C18.5044 8.26082 19.0001 7.68256 19.0001 7.02169C19.0001 5.61734 17.2653 5.36952 15.9435 6.69126C15.2827 7.35213 14.8696 7.35213 14.4566 6.69126C13.7957 5.61734 17.1827 4.13039 19.0001 4.79126C19.9914 5.12169 20.074 4.95647 19.2479 4.13039C18.4218 3.22169 17.7609 3.22169 16.1087 3.96517C14.7044 4.62604 14.0435 4.62604 14.0435 4.04778C14.0435 3.55213 13.3827 3.38691 12.6392 3.63473C11.4 4.04778 11.4 3.96517 12.7218 2.89126C14.8696 1.23908 22.4696 1.23908 25.6087 2.89126ZM31.8044 10.8217C32.7131 11.6478 31.0609 11.813 28.3348 11.0695C27.2609 10.7391 26.6827 10.2434 26.9305 9.74778C27.4261 9.0043 30.4827 9.58256 31.8044 10.8217Z" fill="white"/>
<path d="M12.8045 17.4304C12.474 18.5043 12.7218 19.6608 13.5479 20.5695C14.2914 21.3956 14.8697 22.9652 14.8697 24.1217C14.8697 25.3608 15.1175 26.8478 15.3653 27.5913C15.9436 29.1608 17.5132 29.4087 17.1827 27.8391C17.0175 27.3434 17.6784 25.6913 18.6697 24.3695C21.3132 20.5695 21.6436 19 19.9914 18.4217C19.2479 18.0913 18.0914 17.3478 17.5132 16.7695C15.861 15.1174 13.3827 15.4478 12.8045 17.4304Z" fill="white"/>
</svg>
