<svg width="32" height="24" viewBox="0 0 32 24" fill="none" xmlns="http://www.w3.org/2000/svg">
<path d="M1.5661 0.125238C1.07626 0.295941 0.697743 0.592816 0.386024 1.05297C0.0668836 1.52055 -0.0296007 1.91391 0.00750864 2.54477C0.0668836 3.40571 0.534462 4.11078 1.31376 4.4893L1.73681 4.69711H15.8013H29.8657L30.2888 4.4893C30.7489 4.26664 31.1423 3.87328 31.402 3.38344C31.5431 3.11625 31.5727 2.95297 31.5727 2.35922C31.5727 1.76547 31.5431 1.60219 31.402 1.335C31.1423 0.84516 30.7489 0.451801 30.2888 0.229145L29.8657 0.0213323L15.9126 0.00648832C2.54579 -0.00835514 1.94462 -0.00835514 1.5661 0.125238Z" fill="white"/>
<path d="M1.5661 9.62524C1.07626 9.79594 0.697743 10.0928 0.386024 10.553C0.0668836 11.0206 -0.0296007 11.4139 0.00750864 12.0448C0.0668836 12.9057 0.534462 13.6108 1.31376 13.9893L1.73681 14.1971H15.8013H29.8657L30.2888 13.9893C30.7489 13.7666 31.1423 13.3733 31.402 12.8834C31.5431 12.6163 31.5727 12.453 31.5727 11.8592C31.5727 11.2655 31.5431 11.1022 31.402 10.835C31.1423 10.3452 30.7489 9.9518 30.2888 9.72914L29.8657 9.52133L15.9126 9.50649C2.54579 9.49164 1.94462 9.49164 1.5661 9.62524Z" fill="white"/>
<path d="M1.5661 19.1252C1.07626 19.2959 0.697742 19.5928 0.386023 20.053C0.0668827 20.5206 -0.0296017 20.9139 0.00750769 21.5448C0.0668827 22.4057 0.534461 23.1108 1.31376 23.4893L1.7368 23.6971H15.8013H29.8657L30.2888 23.4893C30.7489 23.2666 31.1423 22.8733 31.402 22.3834C31.5431 22.1163 31.5727 21.953 31.5727 21.3592C31.5727 20.7655 31.5431 20.6022 31.402 20.335C31.1423 19.8452 30.7489 19.4518 30.2888 19.2291L29.8657 19.0213L15.9126 19.0065C2.54579 18.9916 1.94462 18.9916 1.5661 19.1252Z" fill="white"/>
</svg>
